<svg id="avatar" xmlns="http://www.w3.org/2000/svg" viewBox="0 0 375.22 738.58"><defs><style>.cls-1,.cls-8,.cls-9{fill:#803d1c;}.cls-1,.cls-10,.cls-12,.cls-13,.cls-2,.cls-3,.cls-4,.cls-7,.cls-8{stroke:#231f20;stroke-miterlimit:10;}.cls-1,.cls-3{stroke-width:1.63px;}.cls-2{fill:#d05c67;}.cls-10,.cls-12,.cls-13,.cls-2,.cls-7,.cls-8{stroke-width:2.45px;}.cls-3,.cls-4{fill:#d3ab2a;}.cls-4{stroke-width:0.82px;}.cls-13,.cls-5{fill:#231f20;}.cls-6{fill:#fff;}.cls-7{fill:#6d1b50;}.cls-10{fill:#28130f;}.cls-11{fill:#eee6e5;}.cls-12{fill:#4a1b13;}</style></defs><title>Cape frame 15</title><g id="Body"><g id="right_fingers" data-name="right fingers"><path class="cls-1" d="M261.89,492.31c-6.17.45,0-10,0-10s-2.48,5-2.82,7.78c0,0-1.5.26-2.37-2.57s3-6.2,3-6.2c-1.32-3.59,2.68-9.27,2.68-9.27,7.1-4.27,4.07,22.4,4.07,22.4a3.54,3.54,0,0,1-4.45-1.74c-1.49-2.9,1.77-10,1.77-10"/></g><path class="cls-1" d="M118,492.31c6.17.45,0-10,0-10s2.48,5,2.82,7.78c0,0,1.5.26,2.37-2.57s-3-6.2-3-6.2c1.32-3.59-2.68-9.27-2.68-9.27-7.1-4.27-4.07,22.4-4.07,22.4a3.54,3.54,0,0,0,4.45-1.74c1.49-2.9-1.77-10-1.77-10"/><path id="body-2" data-name="body" class="cls-1" d="M235.82,643.9s10.52.55,12.62-2.61c1-1.56-3.82-7.3-6-10.6-3.78-5.77-5.58-9.45-9.62-15.37a24,24,0,0,1-.76-2.57l-.49-1.67c.33-3.81,9.41-105,10.33-133.73.84-26-10.86-81-13.15-93v-.82c0-.17.89-.24.95-.07,4.42,13.31,20.59,58,25,70.39,4.72,13.2-6.19,12.17-5,19.8,1.32,8.64,8.79-1.89,13.5-.94s0,23.31,4.72,23.31,5.66-3.51,8.49-14.83-3.77-53.75-7.54-74.5-16.57-78-35.44-79.36c-23.11-1.66-22.61-10.51-22.27-14.79l-7.53-2.15c-16.69-1.29-32.66,1.64-34.67,2-.09,0-.79.1-.78.19h0c.33,4.27.84,13.13-22.27,14.79C127,328.72,114.25,386,110.48,406.72s-10.37,63.18-7.54,74.5,3.77,14.83,8.49,14.83,0-22.37,4.72-23.31,12.18,9.58,13.5.94c1.17-7.63-9.73-6.6-5-19.8,4.42-12.38,20.6-57.09,25-70.39.05-.16,1-.1.95.07-2.29,12-14,67.77-13.15,93.79.93,28.71,10,130.77,10.33,134.58l-.09.82a24,24,0,0,1-.76,2.57c-4,5.92-5.84,9.6-9.62,15.37-2.17,3.31-7,9-6,10.6,2.1,3.16,12.62,2.61,12.62,2.61,9.69-1.2,18.67-6.39,22-6,0,0,5.69,1.14,9.78-5.4s-1.56-15.87-2.69-19.75,12.34-88.39,14-101.43v-.85c.69-11.61,1.72-14.07,2.09-14.07h1.23c.37,0,1.4,2.46,2.09,14.07v1h0c1.64,13,15.44,97.43,14.31,101.31s-6.79,13.21-2.69,19.75,9.78,5.4,9.78,5.4C216.09,640.4,221.27,646.58,235.82,643.9Z"/><g id="left_toes" data-name="left toes"><g id="left_small_toes" data-name="left small toes"><path class="cls-1" d="M133.35,641.61c-6,1.54-6.86-3.34-6-5.55s2.67-3.5,6.33-2.4C133.71,633.65,137.64,640.5,133.35,641.61Z"/><path class="cls-1" d="M138.37,643.84s-7,.71-7.31-4.08c-.46-7.55,5.78-6.7,8.19-5.49C139.26,634.27,141.93,637.62,138.37,643.84Z"/><path class="cls-1" d="M143.93,645.2s-8.25,2-8-5.26c.28-8.57,8.31-4.71,8.31-4.71C145.18,636.52,148.29,639.14,143.93,645.2Z"/><path class="cls-1" d="M149.94,645.9s-8.2,1.59-8.55-5.18c-.47-9.08,7.88-5.06,7.88-5.06,2.83,1.66,3.18,6.35.67,10.24"/></g><path id="left_big_toe" data-name="left big toe" class="cls-1" d="M155.7,635.43c-6-1-9.46,1.3-8.93,7.2.39,4.31,7.76,5.5,15,1.69s6-10.52,7.28-12.77"/></g><g id="right_toes" data-name="right toes"><g id="right_small_toes" data-name="right small toes"><path class="cls-1" d="M246.7,641.74c5.94,1.6,6.89-3.27,6-5.5s-2.64-3.53-6.31-2.47C246.42,633.78,242.42,640.59,246.7,641.74Z"/><path class="cls-1" d="M241.65,643.91s7,.78,7.35-4c.54-7.55-5.72-6.76-8.14-5.57C240.86,634.34,238.16,637.66,241.65,643.91Z"/><path class="cls-1" d="M236.08,645.22s8.23,2.06,8.07-5.18c-.2-8.57-8.26-4.79-8.26-4.79C234.92,636.53,231.78,639.12,236.08,645.22Z"/><path class="cls-1" d="M230.06,645.86s8.18,1.67,8.6-5.09c.56-9.08-7.83-5.13-7.83-5.13-2.85,1.63-4.29,5.68-1.65,9.48A2.37,2.37,0,0,0,230.06,645.86Z"/></g><path id="right_big_toe" data-name="right big toe" class="cls-1" d="M224,635.37c6-.91,9.45,1.39,8.86,7.29-.43,4.31-7.81,5.43-15,1.54s-5.88-10.58-7.15-12.85"/></g></g><g id="Suit"><g id="suit-2" data-name="suit"><path class="cls-2" d="M235.71,610.5c.1-.46-1-.91-1.08-2.22-.09-2.28,4.76-52.06,4.76-52.47s1.65-1.64,1.65-2.26-.84-2.25-.84-3.08,1.45-.83,1.65-1.86-.84-4.92-.42-6.36c0,0,5.17-40.73,3.54-70.7-2.22-40.81-14.06-81.45-13.18-81.6s7.78,21.21,8.09,22.56-.38,1.59,0,3.74c.38,1.62,1.34,1.39,1.72,2.46s-.9,3,.47,4.87c.87,1.21,32.06-2.17,32.83-4.14a5,5,0,0,0-.67-4.2c-.77-1.11-1.84-14.85-3.41-21.85-4.68-20.88-15.12-50.37-21.51-60.74-5-8.05-18.76-9.38-24.68-10.36s-7.89-3.63-7.89-3.63,1.31-2.53.76-3.49-16.77,3-25.34,2.74H188c-8.57.28-25.6-3.71-26.15-2.74s.76,3.49.76,3.49-2,2.64-7.89,3.63-19.31,2.2-24.68,10.36c-6.69,10.19-17.32,39.76-21.51,60.74,0,0-2.95,20.45-4.31,23.21s2.56,4.3,4.27,4.47,30.54,7.91,30.06,2c-.11-1.37.62-.65-.87-2.38-.89-1-.89-2.25.33-2.54.7-.17,1.59-.42,1.82-1.05a2.62,2.62,0,0,0-.94-2.65c-.65-.47,7.78-24.7,8.66-24.55s-11,40.79-13.18,81.6c-1.63,30,3.54,70.7,3.54,70.7.41,1.45-.63,5.33-.42,6.36s1.65,1,1.65,1.86-.84,2.46-.84,3.08,1.65,1.85,1.65,2.26,4.85,50.19,4.76,52.47c-.05,1.31-1,1.77-1.08,2.22s5.3,4.75,17.93,4.76,13.4-.75,13.82-1.66-1-1.47-.59-2.06,7.3-50.08,7.3-52.84c0-1.1,1.71-2,1.75-3.15,0-.9-1.46-1.46-1.46-2.61s1.48-2.51,1.46-3.37c-.06-3.26-.7-4.44-.28-7.09.13-.85,3.81-44.07,5.24-44h1.68c1.44-.08,5.11,43.14,5.24,44,.42,2.65-.22,3.83-.28,7.09,0,.86,1.46,2.22,1.46,3.37s-1.5,1.7-1.46,2.61c0,1.14,1.75,2,1.75,3.15,0,2.76,6.91,52.25,7.3,52.84s-.59,1-.59,2.06c0,1.42,13.34,2.55,19.8,1.56S235.3,612.44,235.71,610.5Z"/></g><g id="badge"><path class="cls-3" d="M204.27,342.43s.38,16,2.11,25.46c0,3.46,15.56,8.65,15.56,8.65s13.73-5.48,14.31-8.65,3.65-15.85,2.21-25.07c0,0-11-3.55-17.22-3.55S204.27,342.43,204.27,342.43Z"/><path class="cls-4" d="M209.46,346.43s.26,11.13,1.47,17.76c0,2.41,10.86,6,10.86,6s9.58-3.82,10-6,2.54-11.06,1.54-17.49c0,0-7.68-2.48-12-2.48S209.46,346.43,209.46,346.43Z"/></g><g id="folds"><path class="cls-5" d="M181,499.07a15.19,15.19,0,0,1,4.37-1.46,24.06,24.06,0,0,1,4.53-.41,20.64,20.64,0,0,1,8.9,1.87,33.06,33.06,0,0,1-4.51.49c-1.48.06-2.94.11-4.4.09s-2.92,0-4.39-.13S182.54,499.32,181,499.07Z"/><path class="cls-5" d="M197.8,551.72a8.6,8.6,0,0,0,1.14,1.15,15.19,15.19,0,0,0,1.4,1.07,21.37,21.37,0,0,0,3.14,1.75,26.7,26.7,0,0,0,3.45,1.26c.59.18,1.19.31,1.79.47l1.83.36-1.87-.06c-.62-.06-1.25-.09-1.87-.17a27.62,27.62,0,0,1-3.73-.71,22.91,22.91,0,0,1-3.64-1.31,17.18,17.18,0,0,1-1.75-.93,10.6,10.6,0,0,1-1.71-1.25Z"/><path class="cls-5" d="M216.83,320c-2.74.84-5.46,1.59-8.23,2.24q-2.07.49-4.18.84a20,20,0,0,1-4.23.34,19.71,19.71,0,0,0,4.09-.94q2-.64,4-1.42c2.6-1,5.18-2.16,7.69-3.35Z"/><path class="cls-5" d="M240.64,551.35c-1,.38-2,.7-3,1s-2,.59-3,.85a34.42,34.42,0,0,1-6.14,1,33.83,33.83,0,0,0,5.73-2.2q1.38-.66,2.72-1.39c.89-.48,1.79-1,2.62-1.51Z"/><path class="cls-5" d="M183.42,553.35a10.6,10.6,0,0,1-1.71,1.25,17.18,17.18,0,0,1-1.75.93,22.91,22.91,0,0,1-3.64,1.31,27.62,27.62,0,0,1-3.73.71c-.62.09-1.25.11-1.87.17l-1.87.06,1.83-.36c.6-.16,1.21-.28,1.79-.47a26.69,26.69,0,0,0,3.45-1.26,21.37,21.37,0,0,0,3.14-1.75,15.19,15.19,0,0,0,1.4-1.07,8.6,8.6,0,0,0,1.14-1.15Z"/><path class="cls-5" d="M163.47,317.72c2.51,1.19,5.09,2.33,7.69,3.35q2,.77,4,1.42a19.71,19.71,0,0,0,4.09.94,20,20,0,0,1-4.23-.34q-2.1-.35-4.18-.84c-2.77-.65-5.49-1.4-8.23-2.24Z"/><path class="cls-5" d="M139.85,549.15c.84.52,1.73,1,2.62,1.51s1.8.95,2.72,1.39a33.83,33.83,0,0,0,5.73,2.2,34.42,34.42,0,0,1-6.14-1q-1.52-.39-3-.85c-1-.31-2-.63-3-1Z"/><path class="cls-6" d="M138.05,418.2s-4.3.83-11.85-.63"/><path class="cls-5" d="M138.29,419.4a20.52,20.52,0,0,1-3.18-.05c-1-.09-2-.22-3-.39a48.7,48.7,0,0,1-5.86-1.39,48.09,48.09,0,0,0,5.94.17c1,0,2-.11,2.92-.23a18.77,18.77,0,0,0,2.75-.51Z"/><path class="cls-6" d="M241.52,418.2s4.3.83,11.85-.63"/><path class="cls-5" d="M241.76,417a18.77,18.77,0,0,0,2.75.51c1,.12,1.94.19,2.92.23a48.09,48.09,0,0,0,5.94-.17,48.7,48.7,0,0,1-5.86,1.39c-1,.17-2,.3-3,.39a20.52,20.52,0,0,1-3.18.05Z"/></g><g id="cuffs"><path id="left_cuff" data-name="left cuff" class="cls-7" d="M101.16,457.83c-.11,1.55,10.33,4.28,24.36,1,1-.19.19-5.88,7.1-22.77,3.71-9.42,4.09-11.17,4.2-11.48.1-.52-6.74-3.08-14.88-4.49s-14.54-1.3-15.16-.68S102.31,441.3,101.16,457.83Z"/><path id="right_cuff" data-name="right cuff" class="cls-7" d="M278.82,457.83c.11,1.55-10.33,4.28-24.36,1-1-.19-.19-5.88-7.1-22.77-3.71-9.42-4.09-11.17-4.2-11.48-.1-.52,6.74-3.08,14.88-4.49s14.54-1.3,15.16-.68S277.68,441.3,278.82,457.83Z"/></g></g><g id="head"><g id="right_ear" data-name="right ear"><path class="cls-8" d="M280.85,210.41s27.85-12,15.46,30.68c-4,13.63-23.68,14.08-23.68,14.08"/><path class="cls-8" d="M279.88,220.71s11.76-12.3,11.76,6.25S274.71,252.48,275.12,248c.31-3.43,4.36-5.68,6.08-9.91s-1.71-8.38-1.71-8.38S279.43,225.51,279.88,220.71Z"/></g><g id="left_ear" data-name="left ear"><path class="cls-8" d="M97.29,210.91s-28.82-12.49-16.43,30.18c4,13.63,23.68,14.08,23.68,14.08"/><path class="cls-8" d="M97.29,220.71S85.53,208.41,85.53,227,102.45,252.48,102,248c-.31-3.43-4.36-5.68-6.08-9.91s1.71-8.38,1.71-8.38S97.74,225.51,97.29,220.71Z"/></g><path id="head-2" data-name="head" class="cls-8" d="M188.46,104.11c69.47,0,93.14,54.44,93.14,88.17,0,27.51-2.67,121.07-93.14,121.07,0,0-92.27,8.51-92.27-115.68C96.19,163.65,110.57,104.11,188.46,104.11Z"/><g id="nose"><path class="cls-9" d="M180,250.13A17.75,17.75,0,0,1,191,245.94a15.86,15.86,0,0,1,10.34,3.81"/><path class="cls-5" d="M180,250.13a12.68,12.68,0,0,1,4.63-3.87,13.94,13.94,0,0,1,12.08-.31,11.31,11.31,0,0,1,4.71,3.8,25.45,25.45,0,0,0-5.34-2,20.87,20.87,0,0,0-5.38-.59,20.24,20.24,0,0,0-5.34.86A34.38,34.38,0,0,0,180,250.13Z"/><path class="cls-9" d="M204.32,259.57S195,267,191.86,267s-15.8-7.38-15.8-7.38"/><path class="cls-5" d="M204.32,259.57a38.35,38.35,0,0,1-6,5.46,25.48,25.48,0,0,1-3.51,2.22,9.28,9.28,0,0,1-2.15.81l-.7.09a5.61,5.61,0,0,1-.68-.05,3.06,3.06,0,0,1-.61-.11l-.55-.14a36.43,36.43,0,0,1-7.42-3.58,48.31,48.31,0,0,1-6.61-4.7c2.57.89,5,1.94,7.48,3s4.9,2.17,7.24,2.93a3,3,0,0,0,1.4.2,7.06,7.06,0,0,0,.77-.2l.85-.33c1.16-.47,2.3-1.13,3.47-1.74C199.58,262.16,201.89,260.81,204.32,259.57Z"/></g><g id="mouth"><path class="cls-9" d="M163.47,279.82s7.79,7.14,28.4,7.14,27.37-7.14,27.37-7.14"/><path class="cls-5" d="M163.47,279.82c4.17,2.57,8.9,3.81,13.6,4.7a83.23,83.23,0,0,0,14.34,1.2,80.39,80.39,0,0,0,14.35-1.06,45.21,45.21,0,0,0,7-1.71,30.42,30.42,0,0,0,3.36-1.32,16.71,16.71,0,0,0,3.15-1.82,13.6,13.6,0,0,1-2.81,2.41,26.71,26.71,0,0,1-3.24,1.84,36.07,36.07,0,0,1-7,2.47,53.7,53.7,0,0,1-7.34,1.28c-1.23.1-2.47.21-3.71.26s-2.48.09-3.71.09a61.22,61.22,0,0,1-14.74-1.79,41,41,0,0,1-7-2.47A22.21,22.21,0,0,1,163.47,279.82Z"/></g><path id="right_eyebrow" data-name="right eyebrow" class="cls-10" d="M210.5,192.6s.09,5.44,4,4.63,9.42-5.33,23.94-5.37,19.8,9.53,21.46,8.57-6.93-12.75-21.93-14.28C218.9,184.2,210.5,192.6,210.5,192.6Z"/><g id="normal_eyes" data-name="normal eyes"><g id="right_eye" data-name="right eye"><path id="eye_white" data-name="eye white" class="cls-11" d="M213.14,239.39c-2.75-8-7.5-21.51,16.6-30.18,14.88-5.35,24.43,14.39,24.39,17.75s-.54,21.25-18.68,23.28S213.14,239.39,213.14,239.39Z"/><path class="cls-11" d="M210.47,227.39s2.54-16.08,22.19-18.28c14.91-1.67,20.83,14.72,20.9,15,2.87,10.24-3.81,24.51-18,26.16-12.53,1.45-16.22-3.62-16.22-3.62"/><path class="cls-5" d="M210.47,227.39a20.4,20.4,0,0,1,2.28-6.62,23,23,0,0,1,4.27-5.65,25.6,25.6,0,0,1,12.62-6.44,23.83,23.83,0,0,1,7.23-.6,19,19,0,0,1,3.63.76,19.5,19.5,0,0,1,3.39,1.5A21.6,21.6,0,0,1,249.5,215a30.4,30.4,0,0,1,4,6c.28.54.54,1.09.78,1.65.12.28.24.56.35.88l.06.2,0,.11.05.22.11.45a20,20,0,0,1,.46,3.68A22.53,22.53,0,0,1,246,247.17a20.46,20.46,0,0,1-6.56,3,27.87,27.87,0,0,1-7.09.78,26.25,26.25,0,0,1-7-.87,14.51,14.51,0,0,1-3.28-1.31,8.79,8.79,0,0,1-2.72-2.2,8.64,8.64,0,0,0,2.86,1.91,15.3,15.3,0,0,0,3.27,1,25.44,25.44,0,0,0,6.84.37c1.14,0,2.29-.23,3.41-.37a21.9,21.9,0,0,0,3.28-.79,20.23,20.23,0,0,0,5.89-3.11,21,21,0,0,0,7.29-10.82,20.27,20.27,0,0,0,.83-6.51,17.6,17.6,0,0,0-.43-3.23l-.18-.7-.3-.74c-.22-.51-.45-1-.7-1.51a24.12,24.12,0,0,0-8.63-9.87,17.3,17.3,0,0,0-2.94-1.4,16.92,16.92,0,0,0-3.17-.75,21.63,21.63,0,0,0-6.64.3,29.12,29.12,0,0,0-6.48,1.92,23.86,23.86,0,0,0-5.75,3.57A22.82,22.82,0,0,0,210.47,227.39Z"/><path class="cls-12" d="M235,245.07c10.61-1,15.79-20.67,10.63-31-.85-1.72-12-11.23-25.73.47C219.9,214.51,214.45,247,235,245.07Z"/><path class="cls-13" d="M232.95,238.5c9-.13,8.92-19.1,7.5-23.81-2.22-7.34-13.81-7.91-15.6,0C222.78,223.77,224.09,238.62,232.95,238.5Z"/></g><g id="left_eye" data-name="left eye"><path id="eye_white-2" data-name="eye white" class="cls-11" d="M168.76,239.39c2.75-8,6.66-22.68-16.6-30.18-15.71-5.07-24.43,14.39-24.39,17.75s.54,21.25,18.68,23.28S168.76,239.39,168.76,239.39Z"/><path class="cls-11" d="M171.51,227.39s-2.54-16.08-22.19-18.28c-14.91-1.67-20.83,14.72-20.9,15-2.87,10.24,3.81,24.51,18,26.16,12.53,1.45,16.22-3.62,16.22-3.62"/><path class="cls-5" d="M171.51,227.39a22.82,22.82,0,0,0-7.28-11.46,23.86,23.86,0,0,0-5.75-3.57,29.12,29.12,0,0,0-6.48-1.92,21.63,21.63,0,0,0-6.64-.3,16.92,16.92,0,0,0-3.17.75,17.3,17.3,0,0,0-2.94,1.4,24.12,24.12,0,0,0-8.63,9.87c-.25.5-.48,1-.7,1.51l-.3.74-.18.7a17.6,17.6,0,0,0-.43,3.23,20.27,20.27,0,0,0,.83,6.51,21,21,0,0,0,7.29,10.82,20.23,20.23,0,0,0,5.89,3.11,21.9,21.9,0,0,0,3.28.79c1.13.14,2.27.32,3.41.37a25.44,25.44,0,0,0,6.84-.37,15.3,15.3,0,0,0,3.27-1,8.64,8.64,0,0,0,2.86-1.91,8.79,8.79,0,0,1-2.72,2.2,14.51,14.51,0,0,1-3.28,1.31,26.25,26.25,0,0,1-7,.87,27.87,27.87,0,0,1-7.09-.78,20.46,20.46,0,0,1-6.56-3,22.53,22.53,0,0,1-9.42-18.93,20,20,0,0,1,.46-3.68l.11-.45.05-.22,0-.11.06-.2c.12-.32.23-.59.35-.88.24-.56.5-1.11.78-1.65a30.4,30.4,0,0,1,4-6,21.6,21.6,0,0,1,5.63-4.69,19.5,19.5,0,0,1,3.39-1.5,19,19,0,0,1,3.63-.76,23.83,23.83,0,0,1,7.23.6A25.6,25.6,0,0,1,165,215.12a23,23,0,0,1,4.27,5.65A20.4,20.4,0,0,1,171.51,227.39Z"/><path class="cls-12" d="M147,245.07c-10.61-1-15.79-20.67-10.63-31,.85-1.72,12-11.23,25.73.47C162.08,214.51,167.53,247,147,245.07Z"/><path class="cls-13" d="M149,238.5c-9-.13-8.92-19.1-7.5-23.81,2.22-7.34,14.06-8,15.6,0C159.07,224.72,157.88,238.62,149,238.5Z"/></g></g><path id="right_eyebrow-2" data-name="right eyebrow" class="cls-10" d="M172.22,192.6s-.09,5.44-4,4.63-9.42-5.33-23.94-5.37-19.8,9.53-21.46,8.57,6.93-12.75,21.93-14.28C163.82,184.2,172.22,192.6,172.22,192.6Z"/></g><g id="two_buns" data-name="two buns"><g id="buns_back" data-name="buns back"><path id="left_bun" data-name="left bun" class="cls-10" d="M49.57,142.52c-5.82-9.24,7.54-16,7.54-16s-15.69-8.51-7.82-20.9,18.94-6,18.94-6-.34-14.16,11.4-14.87S93,93.94,93,93.94s10.73-10.62,17.78-6.37,7,13.1,7,13.1,12.83-2.83,13.5,7.08-4,12.74-4,12.74,10.07,6,6.88,17.7S122.9,148.8,122.9,148.8s3,10.26-2.35,15.93-13.75-4.25-13.75-4.25-1,9.91-9.73,10.62c-6.74.54-10.73-9.2-10.73-9.2s-3.2,9.12-9.73,7.43-4.36-10.62-4.36-10.62-7.89,5.67-13.42.35c-4.21-4.06.67-12,.67-12S51.8,146.05,49.57,142.52Z"/><path id="right_bun" data-name="right bun" class="cls-10" d="M245.83,142.52c-5.82-9.24,7.54-16,7.54-16s-15.69-8.51-7.82-20.9,18.94-6,18.94-6-.34-14.16,11.4-14.87,13.42,9.2,13.42,9.2S300,83.32,307.09,87.57s7,13.1,7,13.1,12.83-2.83,13.5,7.08-4,12.74-4,12.74,10.07,6,6.88,17.7-11.24,10.62-11.24,10.62,3,10.26-2.35,15.93-13.75-4.25-13.75-4.25-1,9.91-9.73,10.62c-6.74.54-10.73-9.2-10.73-9.2s-3.2,9.12-9.73,7.43-4.36-10.62-4.36-10.62-7.89,5.67-13.42.35c-4.21-4.06.67-12,.67-12S248.06,146.05,245.83,142.52Z"/></g><path id="buns_front" data-name="buns front" class="cls-10" d="M194.36,144.95s6.78,11.09,19.14-2.22c0,0,4.38,19.07,27.44,11.53,0,0,6.65,24.4,26.61,14.64,0,0,5.92,42.64,17.38,32.41S290,102.38,207.32,95.38,87.91,136.9,93.67,202.89c0,13.17,18.49-5.63,13-20.41,0,0,20.59,3.58,19-14.32,0,0,25.66.55,24.78-21.38,0,0,19.49,12.61,24.07-2C174.51,144.79,182.15,155.39,194.36,144.95Z"/></g></svg>