<svg id="avatar" xmlns="http://www.w3.org/2000/svg" viewBox="0 0 286.39 563.96"><defs><style>.cls-1,.cls-10,.cls-9{fill:#803d1c;}.cls-1,.cls-11,.cls-13,.cls-14,.cls-2,.cls-3,.cls-4,.cls-8,.cls-9{stroke:#231f20;stroke-miterlimit:10;}.cls-1,.cls-3{stroke-width:1.63px;}.cls-2{fill:#d05c67;}.cls-11,.cls-13,.cls-14,.cls-2,.cls-8,.cls-9{stroke-width:2.45px;}.cls-3,.cls-4{fill:#d3ab2a;}.cls-4{stroke-width:0.82px;}.cls-14,.cls-5{fill:#231f20;}.cls-6{fill:none;}.cls-7{fill:#fff;}.cls-8{fill:#6d1b50;}.cls-11{fill:#28130f;}.cls-12{fill:#eee6e5;}.cls-13{fill:#4a1b13;}</style></defs><title>Avatar_base</title><g id="Body"><g id="right_fingers" data-name="right fingers"><path class="cls-1" d="M264.89,492.31c-6.16.45.05-10,.05-10s-2.48,5-2.83,7.78c0,0-1.49.27-2.37-2.57s3.05-6.2,3.05-6.2c-1.33-3.6,2.67-9.27,2.67-9.27,7.1-4.27,4.07,22.4,4.07,22.4a3.53,3.53,0,0,1-4.45-1.73c-1.49-2.9,1.77-10,1.77-10" transform="translate(-45.86 -83.48)"/></g><path class="cls-1" d="M121,492.31c6.16.45,0-10,0-10s2.48,5,2.82,7.78c0,0,1.5.27,2.38-2.57s-3-6.2-3-6.2c1.33-3.6-2.67-9.27-2.67-9.27-7.1-4.27-4.07,22.4-4.07,22.4a3.53,3.53,0,0,0,4.45-1.73c1.49-2.9-1.77-10-1.77-10" transform="translate(-45.86 -83.48)"/><path class="cls-1" d="M178.72,310.42" transform="translate(-45.86 -83.48)"/><path id="body-2" data-name="body" class="cls-1" d="M238.82,643.9s10.52.55,12.62-2.61c1-1.56-3.83-7.3-6-10.6-3.78-5.77-5.58-9.45-9.63-15.38a23.32,23.32,0,0,1-.75-2.57l-.49-1.67c.33-3.81,9.41-105,10.33-133.73.84-26-10.85-81-13.14-93v-.82c0-.17.89-.23.95-.07,4.41,13.31,20.59,58,25,70.4,4.72,13.2-6.18,12.17-5,19.8,1.32,8.64,8.78-1.89,13.5-.94s0,23.31,4.71,23.31,5.66-3.51,8.49-14.83-3.77-53.75-7.54-74.5-16.58-78-35.44-79.36c-23.11-1.66-22.6-10.51-22.27-14.78l-7.53-2.16c-16.69-1.28-32.67,1.64-34.67,2-.09,0-.79.1-.78.19h0c.33,4.27.83,13.12-22.28,14.78-18.86,1.36-31.66,58.62-35.43,79.36s-10.38,63.19-7.55,74.5,3.77,14.83,8.49,14.83,0-22.37,4.71-23.31,12.18,9.58,13.51.94c1.17-7.63-9.73-6.6-5-19.8,4.42-12.38,20.6-57.09,25-70.4.05-.16,1-.1.94.07-2.28,12-14,67.77-13.14,93.79.93,28.71,10,130.77,10.33,134.58l-.09.82a23.32,23.32,0,0,1-.75,2.57c-4.05,5.93-5.85,9.61-9.63,15.38-2.16,3.3-7,9-6,10.6,2.1,3.16,12.62,2.61,12.62,2.61,9.7-1.2,18.67-6.39,22-6,0,0,5.68,1.14,9.78-5.4s-1.57-15.87-2.7-19.75,12.35-88.39,14-101.43v-.85c.69-11.61,1.72-14.07,2.09-14.07h1.23c.37,0,1.4,2.46,2.09,14.07v1h0c1.65,13,15.45,97.43,14.32,101.31s-6.79,13.2-2.7,19.75,9.79,5.4,9.79,5.4C219.09,640.4,224.27,646.58,238.82,643.9Z" transform="translate(-45.86 -83.48)"/><g id="left_toes" data-name="left toes"><g id="left_small_toes" data-name="left small toes"><path class="cls-1" d="M136.35,641.61c-5.95,1.54-6.85-3.34-6-5.55s2.67-3.51,6.33-2.41C136.71,633.65,140.64,640.5,136.35,641.61Z" transform="translate(-45.86 -83.48)"/><path class="cls-1" d="M141.37,643.84s-7,.71-7.3-4.08c-.47-7.55,5.78-6.7,8.19-5.49C142.26,634.27,144.93,637.62,141.37,643.84Z" transform="translate(-45.86 -83.48)"/><path class="cls-1" d="M146.93,645.2s-8.25,2-8-5.26c.28-8.57,8.31-4.71,8.31-4.71C148.18,636.52,151.29,639.14,146.93,645.2Z" transform="translate(-45.86 -83.48)"/><path class="cls-1" d="M152.94,645.9s-8.19,1.59-8.54-5.18c-.48-9.09,7.88-5.06,7.88-5.06,2.83,1.66,3.17,6.35.66,10.24" transform="translate(-45.86 -83.48)"/></g><path id="left_big_toe" data-name="left big toe" class="cls-1" d="M158.7,635.43c-6-1-9.46,1.3-8.93,7.2.39,4.31,7.76,5.5,15,1.69s6-10.52,7.28-12.78" transform="translate(-45.86 -83.48)"/></g><g id="right_toes" data-name="right toes"><g id="right_small_toes" data-name="right small toes"><path class="cls-1" d="M249.7,641.74c5.94,1.59,6.88-3.27,6-5.5s-2.63-3.53-6.3-2.46C249.42,633.78,245.42,640.59,249.7,641.74Z" transform="translate(-45.86 -83.48)"/><path class="cls-1" d="M244.65,643.91s7,.78,7.35-4c.54-7.55-5.72-6.76-8.14-5.57C243.86,634.34,241.16,637.66,244.65,643.91Z" transform="translate(-45.86 -83.48)"/><path class="cls-1" d="M239.08,645.22s8.24,2.07,8.07-5.18c-.2-8.57-8.26-4.79-8.26-4.79C237.92,636.53,234.78,639.12,239.08,645.22Z" transform="translate(-45.86 -83.48)"/><path class="cls-1" d="M233.06,645.86s8.18,1.67,8.6-5.1c.56-9.08-7.83-5.13-7.83-5.13-2.85,1.63-4.29,5.68-1.65,9.48A2.36,2.36,0,0,0,233.06,645.86Z" transform="translate(-45.86 -83.48)"/></g><path id="right_big_toe" data-name="right big toe" class="cls-1" d="M227,635.37c6-.92,9.45,1.39,8.86,7.28-.43,4.31-7.81,5.43-15,1.55s-5.88-10.58-7.15-12.85" transform="translate(-45.86 -83.48)"/></g></g><g id="Suit"><g id="suit-2" data-name="suit"><path class="cls-2" d="M238.71,610.5c.1-.46-1-.91-1.08-2.22-.09-2.28,4.76-52.06,4.76-52.47s1.65-1.65,1.65-2.26-.83-2.26-.83-3.08,1.44-.83,1.65-1.86-.84-4.92-.42-6.36c0,0,5.17-40.73,3.54-70.7-2.22-40.82-14.06-81.45-13.18-81.61s7.78,21.22,8.09,22.56-.38,1.59,0,3.74c.38,1.62,1.34,1.39,1.72,2.47s-.9,3,.47,4.87c.87,1.21,32.06-2.17,32.83-4.14a5,5,0,0,0-.67-4.21c-.77-1.1-1.84-14.84-3.41-21.84-4.68-20.89-15.12-50.37-21.51-60.75-5-8.05-18.76-9.37-24.68-10.36s-7.89-3.63-7.89-3.63,1.31-2.53.76-3.49-16.77,3-25.34,2.74H191c-8.56.28-25.6-3.71-26.15-2.74s.76,3.49.76,3.49-2,2.64-7.89,3.63-19.31,2.2-24.68,10.36c-6.69,10.19-17.31,39.76-21.51,60.75,0,0-2.95,20.45-4.31,23.21s2.56,4.3,4.27,4.47,30.53,7.91,30.06,2.05c-.11-1.37.62-.65-.87-2.38-.89-1-.89-2.25.33-2.54.7-.17,1.59-.42,1.83-1.05a2.64,2.64,0,0,0-.94-2.66c-.65-.47,7.77-24.7,8.66-24.55s-11,40.79-13.18,81.61c-1.63,30,3.54,70.7,3.54,70.7.42,1.44-.63,5.33-.42,6.36s1.65,1,1.65,1.86-.83,2.46-.83,3.08,1.65,1.84,1.65,2.26,4.85,50.19,4.76,52.47c-.06,1.31-1,1.76-1.08,2.22s5.3,4.75,17.92,4.76,13.4-.75,13.82-1.66-1-1.47-.59-2.06,7.3-50.08,7.3-52.84c0-1.11,1.71-2,1.76-3.16,0-.9-1.46-1.46-1.46-2.6s1.47-2.51,1.46-3.37c-.06-3.26-.7-4.44-.28-7.09.13-.85,3.8-44.08,5.24-44h1.68c1.44-.09,5.11,43.14,5.24,44,.42,2.65-.22,3.83-.28,7.09,0,.86,1.46,2.22,1.46,3.37s-1.49,1.7-1.46,2.6c.05,1.15,1.76,2.05,1.76,3.16,0,2.76,6.91,52.25,7.3,52.84s-.59,1-.59,2.06c0,1.42,13.34,2.54,19.8,1.56S238.3,612.44,238.71,610.5Z" transform="translate(-45.86 -83.48)"/></g><g id="badge"><path class="cls-3" d="M207.27,342.43s.38,15.95,2.11,25.47c0,3.45,15.56,8.64,15.56,8.64s13.74-5.47,14.31-8.64,3.65-15.86,2.21-25.08c0,0-11-3.55-17.23-3.55S207.27,342.43,207.27,342.43Z" transform="translate(-45.86 -83.48)"/><path class="cls-4" d="M212.46,346.43s.26,11.12,1.47,17.76c0,2.41,10.85,6,10.85,6s9.58-3.82,10-6,2.54-11.06,1.54-17.49c0,0-7.69-2.48-12-2.48S212.46,346.43,212.46,346.43Z" transform="translate(-45.86 -83.48)"/></g><g id="folds"><path class="cls-5" d="M184,499.07a15.31,15.31,0,0,1,4.37-1.46,24.55,24.55,0,0,1,4.53-.41,20.9,20.9,0,0,1,8.9,1.87,31.21,31.21,0,0,1-4.51.49c-1.48.06-2.94.11-4.4.09s-2.92,0-4.39-.12S185.54,499.32,184,499.07Z" transform="translate(-45.86 -83.48)"/><path class="cls-6" d="M258.51,457.83" transform="translate(-45.86 -83.48)"/><path class="cls-5" d="M200.8,551.72a9.41,9.41,0,0,0,1.14,1.14,16.67,16.67,0,0,0,1.4,1.07,21.77,21.77,0,0,0,3.14,1.75,25.33,25.33,0,0,0,3.45,1.26c.59.19,1.19.31,1.79.47l1.83.36-1.87-.06c-.62-.05-1.25-.08-1.87-.17a28.6,28.6,0,0,1-3.74-.7,23.18,23.18,0,0,1-3.63-1.31,17.26,17.26,0,0,1-1.75-.93,10.4,10.4,0,0,1-1.71-1.25Z" transform="translate(-45.86 -83.48)"/><path class="cls-5" d="M219.83,320c-2.73.85-5.46,1.59-8.23,2.25-1.38.32-2.77.61-4.18.84a20,20,0,0,1-4.23.34,19,19,0,0,0,4.09-.94c1.34-.42,2.65-.9,4-1.41,2.6-1,5.18-2.16,7.69-3.35Z" transform="translate(-45.86 -83.48)"/><path class="cls-5" d="M243.64,551.35c-1,.38-2,.7-3,1s-2,.59-3,.85a34.71,34.71,0,0,1-6.14,1,33.54,33.54,0,0,0,5.73-2.19c.92-.45,1.83-.91,2.72-1.39s1.79-1,2.62-1.52Z" transform="translate(-45.86 -83.48)"/><path class="cls-6" d="M126.89,457.83" transform="translate(-45.86 -83.48)"/><path class="cls-5" d="M186.42,553.35a10.4,10.4,0,0,1-1.71,1.25,17.26,17.26,0,0,1-1.75.93,23.18,23.18,0,0,1-3.63,1.31,28.6,28.6,0,0,1-3.74.7c-.62.09-1.25.12-1.87.17l-1.87.06,1.83-.36c.6-.16,1.2-.28,1.79-.47a25.33,25.33,0,0,0,3.45-1.26,21.77,21.77,0,0,0,3.14-1.75,16.67,16.67,0,0,0,1.4-1.07,9.41,9.41,0,0,0,1.14-1.14Z" transform="translate(-45.86 -83.48)"/><path class="cls-5" d="M166.47,317.72c2.51,1.19,5.09,2.32,7.69,3.35,1.31.51,2.62,1,4,1.41a19,19,0,0,0,4.09.94,20,20,0,0,1-4.23-.34c-1.41-.23-2.8-.52-4.18-.84-2.77-.66-5.5-1.4-8.23-2.25Z" transform="translate(-45.86 -83.48)"/><path class="cls-5" d="M142.85,549.15c.83.52,1.73,1,2.62,1.52s1.8.94,2.72,1.39a33.54,33.54,0,0,0,5.73,2.19,34.71,34.71,0,0,1-6.14-1c-1-.26-2-.54-3-.85s-2-.63-3-1Z" transform="translate(-45.86 -83.48)"/><path class="cls-7" d="M141.05,418.2s-4.3.83-11.84-.63" transform="translate(-45.86 -83.48)"/><path class="cls-5" d="M141.29,419.4a21,21,0,0,1-3.19,0c-1-.09-2-.23-3-.39a49.48,49.48,0,0,1-5.86-1.39,49.23,49.23,0,0,0,5.94.17c1,0,2-.11,2.92-.23a19.25,19.25,0,0,0,2.75-.51Z" transform="translate(-45.86 -83.48)"/><path class="cls-7" d="M244.52,418.2s4.31.83,11.85-.63" transform="translate(-45.86 -83.48)"/><path class="cls-5" d="M244.76,417a19.25,19.25,0,0,0,2.75.51c1,.12,1.93.19,2.92.23a49.29,49.29,0,0,0,5.94-.17,50,50,0,0,1-5.86,1.39c-1,.16-2,.3-3,.39a20.82,20.82,0,0,1-3.18,0Z" transform="translate(-45.86 -83.48)"/></g><g id="cuffs"><path id="left_cuff" data-name="left cuff" class="cls-8" d="M104.16,457.83c-.1,1.55,10.34,4.28,24.37,1,1-.2.19-5.88,7.1-22.78,3.71-9.42,4.09-11.17,4.2-11.48.1-.52-6.74-3.08-14.88-4.49s-14.54-1.29-15.16-.68S105.31,441.3,104.16,457.83Z" transform="translate(-45.86 -83.48)"/><path id="right_cuff" data-name="right cuff" class="cls-8" d="M281.82,457.83c.11,1.55-10.33,4.28-24.36,1-1-.2-.2-5.88-7.11-22.78-3.71-9.42-4.09-11.17-4.19-11.48-.11-.52,6.73-3.08,14.87-4.49s14.55-1.29,15.16-.68S280.68,441.3,281.82,457.83Z" transform="translate(-45.86 -83.48)"/></g></g><g id="head"><g id="right_ear" data-name="right ear"><path class="cls-9" d="M283.85,210.41s27.85-12,15.46,30.68c-4,13.62-23.68,14.07-23.68,14.07" transform="translate(-45.86 -83.48)"/><path class="cls-9" d="M282.88,220.71s11.75-12.3,11.75,6.25S277.71,252.48,278.12,248c.31-3.43,4.36-5.68,6.07-9.91s-1.71-8.38-1.71-8.38S282.43,225.51,282.88,220.71Z" transform="translate(-45.86 -83.48)"/></g><g id="left_ear" data-name="left ear"><path class="cls-9" d="M100.29,210.91s-28.83-12.49-16.43,30.18c4,13.62,23.68,14.07,23.68,14.07" transform="translate(-45.86 -83.48)"/><path class="cls-9" d="M100.29,220.71S88.53,208.41,88.53,227s16.92,25.52,16.52,21.08c-.32-3.43-4.37-5.68-6.08-9.91s1.71-8.38,1.71-8.38S100.74,225.51,100.29,220.71Z" transform="translate(-45.86 -83.48)"/></g><path id="head-2" data-name="head" class="cls-9" d="M191.46,104.11c69.47,0,93.15,54.44,93.15,88.17,0,27.51-2.67,121.07-93.15,121.07,0,0-92.27,8.51-92.27-115.68C99.19,163.65,113.57,104.11,191.46,104.11Z" transform="translate(-45.86 -83.48)"/><g id="nose"><path class="cls-10" d="M183,250.13A17.78,17.78,0,0,1,194,245.94a15.86,15.86,0,0,1,10.34,3.81" transform="translate(-45.86 -83.48)"/><path class="cls-5" d="M183,250.13a12.72,12.72,0,0,1,4.63-3.87,13.79,13.79,0,0,1,6-1.53,14.2,14.2,0,0,1,6.08,1.22,11.32,11.32,0,0,1,4.7,3.8,25.49,25.49,0,0,0-5.34-2,21,21,0,0,0-5.38-.59,19.85,19.85,0,0,0-5.35.86A34.45,34.45,0,0,0,183,250.13Z" transform="translate(-45.86 -83.48)"/><path class="cls-10" d="M207.32,259.57S198,267,194.86,267s-15.81-7.39-15.81-7.39" transform="translate(-45.86 -83.48)"/><path class="cls-5" d="M207.32,259.57a38.61,38.61,0,0,1-6,5.47,26.45,26.45,0,0,1-3.51,2.22,9.07,9.07,0,0,1-2.15.81c-.24,0-.47.07-.71.09a4.91,4.91,0,0,1-.67-.05,3,3,0,0,1-.61-.11l-.56-.15a36.11,36.11,0,0,1-7.42-3.58,48.07,48.07,0,0,1-6.61-4.7c2.57.9,5,1.95,7.48,3s4.9,2.17,7.25,2.93a2.92,2.92,0,0,0,1.4.19,7.35,7.35,0,0,0,.77-.2l.85-.33c1.16-.47,2.3-1.13,3.47-1.74C202.58,262.16,204.89,260.81,207.32,259.57Z" transform="translate(-45.86 -83.48)"/></g><g id="mouth"><path class="cls-10" d="M166.47,279.82s7.78,7.13,28.4,7.13,27.37-7.13,27.37-7.13" transform="translate(-45.86 -83.48)"/><path class="cls-5" d="M166.47,279.82c4.17,2.57,8.9,3.81,13.59,4.7a84,84,0,0,0,14.35,1.2,80.07,80.07,0,0,0,14.35-1.05,44.46,44.46,0,0,0,7-1.72,29.93,29.93,0,0,0,3.36-1.31,17,17,0,0,0,3.14-1.82,13.83,13.83,0,0,1-2.81,2.41,27.88,27.88,0,0,1-3.24,1.84,35.84,35.84,0,0,1-7,2.46,53.55,53.55,0,0,1-7.33,1.29c-1.24.1-2.48.21-3.71.26s-2.48.1-3.72.09a61.68,61.68,0,0,1-14.74-1.79,41.79,41.79,0,0,1-7-2.47A22.28,22.28,0,0,1,166.47,279.82Z" transform="translate(-45.86 -83.48)"/></g><path id="right_eyebrow" data-name="right eyebrow" class="cls-11" d="M213.5,192.6s.09,5.45,4,4.63,9.42-5.33,23.94-5.38,19.8,9.53,21.46,8.57-6.94-12.75-21.93-14.28C221.9,184.2,213.5,192.6,213.5,192.6Z" transform="translate(-45.86 -83.48)"/><g id="normal_eyes" data-name="normal eyes"><g id="right_eye" data-name="right eye"><path id="eye_white" data-name="eye white" class="cls-12" d="M216.14,239.39c-2.75-8-7.5-21.51,16.6-30.18,14.88-5.36,24.43,14.39,24.39,17.75s-.55,21.25-18.69,23.28S216.14,239.39,216.14,239.39Z" transform="translate(-45.86 -83.48)"/><path class="cls-12" d="M213.47,227.39s2.54-16.07,22.19-18.28c14.9-1.67,20.83,14.73,20.89,15,2.87,10.24-3.81,24.51-18,26.16-12.53,1.45-16.21-3.62-16.21-3.62" transform="translate(-45.86 -83.48)"/><path class="cls-5" d="M213.47,227.39a20.56,20.56,0,0,1,2.27-6.62,23.23,23.23,0,0,1,4.27-5.65,25.6,25.6,0,0,1,12.62-6.44,23.44,23.44,0,0,1,7.22-.6,18.75,18.75,0,0,1,3.63.76,19,19,0,0,1,3.39,1.5A21.43,21.43,0,0,1,252.5,215a30.34,30.34,0,0,1,4,6q.42.81.78,1.65c.12.29.24.56.35.88l.06.2,0,.11.06.22.11.45a20,20,0,0,1,.46,3.69A22.52,22.52,0,0,1,249,247.17a20.6,20.6,0,0,1-6.57,3.05,28,28,0,0,1-7.08.78,26.38,26.38,0,0,1-7-.87,15,15,0,0,1-3.28-1.31,8.78,8.78,0,0,1-2.71-2.2,8.65,8.65,0,0,0,2.86,1.91,15,15,0,0,0,3.27,1,25.31,25.31,0,0,0,6.84.37c1.14-.05,2.29-.23,3.41-.37a22.85,22.85,0,0,0,3.29-.79,20.23,20.23,0,0,0,5.88-3.11,20.9,20.9,0,0,0,7.29-10.82,20.27,20.27,0,0,0,.84-6.51,17.33,17.33,0,0,0-.44-3.22l-.18-.71-.3-.74c-.21-.5-.45-1-.7-1.51a24.18,24.18,0,0,0-8.63-9.87,17.66,17.66,0,0,0-3-1.39,16.43,16.43,0,0,0-3.17-.75,21.6,21.6,0,0,0-6.64.3,29.73,29.73,0,0,0-6.49,1.92,23.87,23.87,0,0,0-5.74,3.57A22.8,22.8,0,0,0,213.47,227.39Z" transform="translate(-45.86 -83.48)"/><path class="cls-13" d="M238,245.07c10.61-1,15.79-20.67,10.63-31-.85-1.72-12-11.23-25.72.47C222.9,214.51,217.45,247,238,245.07Z" transform="translate(-45.86 -83.48)"/><path class="cls-14" d="M236,238.5c9-.12,8.92-19.1,7.49-23.81-2.22-7.34-13.81-7.91-15.6,0C225.78,223.77,227.09,238.62,236,238.5Z" transform="translate(-45.86 -83.48)"/></g><g id="left_eye" data-name="left eye"><path id="eye_white-2" data-name="eye white" class="cls-12" d="M171.76,239.39c2.75-8,6.65-22.68-16.6-30.18-15.72-5.07-24.44,14.39-24.39,17.75s.54,21.25,18.68,23.28S171.76,239.39,171.76,239.39Z" transform="translate(-45.86 -83.48)"/><path class="cls-12" d="M174.51,227.39s-2.55-16.07-22.19-18.28c-14.91-1.67-20.83,14.73-20.9,15-2.86,10.24,3.81,24.51,18,26.16,12.53,1.45,16.22-3.62,16.22-3.62" transform="translate(-45.86 -83.48)"/><path class="cls-5" d="M174.51,227.39a22.86,22.86,0,0,0-7.28-11.46,23.93,23.93,0,0,0-5.75-3.57,29.81,29.81,0,0,0-6.48-1.92,21.62,21.62,0,0,0-6.64-.3,16.35,16.35,0,0,0-3.18.75,17.56,17.56,0,0,0-2.94,1.39,24.2,24.2,0,0,0-8.64,9.87c-.25.5-.48,1-.7,1.51l-.3.74-.18.71a18.2,18.2,0,0,0-.43,3.22,20.26,20.26,0,0,0,.83,6.51,21,21,0,0,0,7.29,10.82,20.28,20.28,0,0,0,5.89,3.11,22.72,22.72,0,0,0,3.28.79c1.13.14,2.27.32,3.41.37a25.27,25.27,0,0,0,6.84-.37,15.06,15.06,0,0,0,3.28-1,8.75,8.75,0,0,0,2.86-1.91,8.71,8.71,0,0,1-2.72,2.2,14.59,14.59,0,0,1-3.28,1.31,26.31,26.31,0,0,1-7,.87,28.08,28.08,0,0,1-7.09-.78,20.45,20.45,0,0,1-6.56-3.05,22.52,22.52,0,0,1-9.42-18.92,20,20,0,0,1,.46-3.69l.11-.45.05-.22,0-.11.06-.2c.12-.32.23-.59.35-.88.25-.56.51-1.11.79-1.65a30.29,30.29,0,0,1,4-6,21.6,21.6,0,0,1,5.63-4.69,19.32,19.32,0,0,1,3.39-1.5,18.91,18.91,0,0,1,3.63-.76,23.54,23.54,0,0,1,7.23.6A25.61,25.61,0,0,1,168,215.12a23,23,0,0,1,4.27,5.65A20.58,20.58,0,0,1,174.51,227.39Z" transform="translate(-45.86 -83.48)"/><path class="cls-13" d="M150,245.07c-10.61-1-15.79-20.67-10.64-31,.86-1.72,12-11.23,25.73.47C165.08,214.51,170.53,247,150,245.07Z" transform="translate(-45.86 -83.48)"/><path class="cls-14" d="M152,238.5c-9-.12-8.93-19.1-7.5-23.81,2.22-7.34,14.06-8,15.6,0C162.07,224.72,160.88,238.62,152,238.5Z" transform="translate(-45.86 -83.48)"/></g></g><path id="right_eyebrow-2" data-name="right eyebrow" class="cls-11" d="M175.22,192.6s-.09,5.45-4,4.63-9.42-5.33-23.94-5.38-19.8,9.53-21.46,8.57,6.94-12.75,21.93-14.28C166.82,184.2,175.22,192.6,175.22,192.6Z" transform="translate(-45.86 -83.48)"/></g><g id="two_buns" data-name="two buns"><g id="buns_back" data-name="buns back"><path id="left_bun" data-name="left bun" class="cls-11" d="M49.57,142.52c-5.82-9.24,7.54-16,7.54-16s-15.69-8.51-7.82-20.9,18.94-6,18.94-6-.34-14.16,11.4-14.86,13.42,9.2,13.42,9.2,10.73-10.62,17.78-6.37,7,13.09,7,13.09,12.83-2.83,13.5,7.08-4,12.74-4,12.74,10.07,6,6.88,17.7S122.9,148.8,122.9,148.8s3,10.27-2.35,15.93-13.75-4.25-13.75-4.25-1,9.92-9.73,10.62c-6.74.55-10.73-9.2-10.73-9.2s-3.2,9.12-9.73,7.43-4.36-10.62-4.36-10.62-7.88,5.68-13.41.36c-4.22-4.06.67-12,.67-12S51.8,146.05,49.57,142.52Z" transform="translate(-45.86 -83.48)"/><path id="right_bun" data-name="right bun" class="cls-11" d="M245.83,142.52c-5.82-9.24,7.55-16,7.55-16s-15.69-8.51-7.82-20.9,18.93-6,18.93-6-.33-14.16,11.41-14.86,13.41,9.2,13.41,9.2,10.74-10.62,17.78-6.37,7,13.09,7,13.09,12.82-2.83,13.49,7.08-4,12.74-4,12.74,10.06,6,6.87,17.7-11.23,10.62-11.23,10.62,3,10.27-2.35,15.93-13.75-4.25-13.75-4.25-1,9.92-9.73,10.62c-6.75.55-10.74-9.2-10.74-9.2s-3.2,9.12-9.72,7.43-4.36-10.62-4.36-10.62-7.89,5.68-13.42.36c-4.21-4.06.67-12,.67-12S248.06,146.05,245.83,142.52Z" transform="translate(-45.86 -83.48)"/></g><path id="buns_front" data-name="buns front" class="cls-11" d="M194.36,145s6.78,11.09,19.14-2.22c0,0,4.38,19.07,27.44,11.53,0,0,6.65,24.4,26.61,14.64,0,0,5.93,42.64,17.38,32.41S290,102.38,207.32,95.38,87.91,136.9,93.67,202.89c0,13.17,18.49-5.63,13-20.4,0,0,20.58,3.58,19-14.33,0,0,25.66.55,24.78-21.38,0,0,19.49,12.61,24.07-2C174.51,144.79,182.15,155.39,194.36,145Z" transform="translate(-45.86 -83.48)"/></g></svg>